<svg xmlns="http://www.w3.org/2000/svg" xml:lang="en" height="244.64000000000004pt" width="255.2pt" viewBox="-127.6 -199.00000000000003 255.2 244.64000000000004"><circle cx="-41.99999999999999" cy="1.9984014443252818e-15" r="9.0" style="stroke:black;fill:none;stroke-width:2.0;stroke-dasharray:-;" /><polygon points="-69.0,-78.0 -80.25,-66.75 -123.0,-66.75 -123.0,-89.25 -80.25,-89.25 " style="stroke:black;fill:none;stroke-width:2.0;stroke-dasharray:-;stroke-linecap:round;stroke-linejoin:round;" /><polygon points="69.0,-77.99999999999997 80.25,-89.24999999999997 123.0,-89.24999999999997 123.0,-66.74999999999997 80.25,-66.74999999999997 " style="stroke:black;fill:none;stroke-width:2.0;stroke-dasharray:-;stroke-linecap:round;stroke-linejoin:round;" /><polygon points="111.75,-108.74999999999999 69.0,-108.74999999999999 69.0,-131.25 111.75,-131.25 123.0,-119.99999999999999 " style="stroke:black;fill:none;stroke-width:2.0;stroke-dasharray:-;stroke-linecap:round;stroke-linejoin:round;" /><path d="M 0.0,-0.0 L 0.0,-14.999999999999995 L -14.999999999999998,-14.999999999999995 L -14.999999999999998,-45.0 L 0.0,-45.0 L 0.0,-59.99999999999999" style="stroke:black;fill:none;stroke-width:2.0;stroke-dasharray:-;stroke-linecap:round;stroke-linejoin:round;" /><path d="M -9.0,-14.999999999999996 L -14.999999999999998,-14.999999999999995" style="stroke:black;fill:none;stroke-width:2.0;stroke-dasharray:-;stroke-linecap:round;stroke-linejoin:round;" /><path d="M -2.0 -14.999999999999995 L -9.0 -10.499999999999995 L -9.0 -19.499999999999993 Z" style="stroke:black;fill:black;stroke-linecap:butt;stroke-linejoin:miter;" /><path d="M -17.999999999999996,-17.999999999999993 L -17.999999999999996,-41.99999999999999" style="stroke:black;fill:none;stroke-width:2.0;stroke-dasharray:-;stroke-linecap:round;stroke-linejoin:round;" /><path d="M -32.99999999999999,-17.999999999999993 L -17.999999999999996,-17.999999999999993" style="stroke:black;fill:none;stroke-width:2.0;stroke-dasharray:-;stroke-linecap:round;stroke-linejoin:round;" /><path d="M 0.0,-0.0 L -1.6532731788489267e-15,9.0 L -3.3065463576978533e-15,18.0" style="stroke:black;fill:none;stroke-width:2.0;stroke-dasharray:-;stroke-linecap:round;stroke-linejoin:round;" /><path d="M -3.3065463576978533e-15,18.0 L -3.3065463576978533e-15,32.4 L -9.000000000000004,32.4 L 8.999999999999996,32.4 M -6.3000000000000025,36.72 L 6.299999999999996,36.72 M -1.8000000000000034,41.040000000000006 L 1.799999999999997,41.040000000000006" style="stroke:black;fill:none;stroke-width:2.0;stroke-dasharray:-;stroke-linecap:round;stroke-linejoin:round;" /><path d="M 0.0,-59.99999999999999 L -18.0,-59.99999999999999 L -36.0,-60.0" style="stroke:black;fill:none;stroke-width:2.0;stroke-dasharray:-;stroke-linecap:round;stroke-linejoin:round;" /><path d="M -36.0,-60.0 L -36.0,-74.99999999999999 L -50.99999999999999,-74.99999999999999 L -50.99999999999999,-105.00000000000001 L -36.0,-105.00000000000001 L -36.0,-119.99999999999999" style="stroke:black;fill:none;stroke-width:2.0;stroke-dasharray:-;stroke-linecap:round;stroke-linejoin:round;" /><path d="M -45.0,-74.99999999999999 L -50.99999999999999,-74.99999999999999" style="stroke:black;fill:none;stroke-width:2.0;stroke-dasharray:-;stroke-linecap:round;stroke-linejoin:round;" /><path d="M -38.0 -74.99999999999999 L -45.0 -70.49999999999999 L -45.0 -79.49999999999999 Z" style="stroke:black;fill:black;stroke-linecap:butt;stroke-linejoin:miter;" /><path d="M -54.0,-78.0 L -54.0,-101.99999999999999" style="stroke:black;fill:none;stroke-width:2.0;stroke-dasharray:-;stroke-linecap:round;stroke-linejoin:round;" /><path d="M -69.0,-78.0 L -54.0,-78.0" style="stroke:black;fill:none;stroke-width:2.0;stroke-dasharray:-;stroke-linecap:round;stroke-linejoin:round;" /><path d="M 0.0,-59.99999999999999 L 18.0,-59.99999999999999 L 36.0,-59.99999999999999" style="stroke:black;fill:none;stroke-width:2.0;stroke-dasharray:-;stroke-linecap:round;stroke-linejoin:round;" /><path d="M 36.0,-119.99999999999999 L 36.0,-105.0 L 50.99999999999999,-105.0 L 50.99999999999999,-74.99999999999999 L 36.0,-74.99999999999999 L 36.0,-59.99999999999999" style="stroke:black;fill:none;stroke-width:2.0;stroke-dasharray:-;stroke-linecap:round;stroke-linejoin:round;" /><path d="M 50.99999999999999,-74.99999999999999 L 45.0,-74.99999999999999" style="stroke:black;fill:none;stroke-width:2.0;stroke-dasharray:-;stroke-linecap:round;stroke-linejoin:round;" /><path d="M 38.0 -74.99999999999999 L 45.0 -79.49999999999999 L 45.0 -70.49999999999999 Z" style="stroke:black;fill:black;stroke-linecap:butt;stroke-linejoin:miter;" /><path d="M 54.0,-101.99999999999999 L 54.0,-77.99999999999997" style="stroke:black;fill:none;stroke-width:2.0;stroke-dasharray:-;stroke-linecap:round;stroke-linejoin:round;" /><path d="M 54.0,-77.99999999999997 L 69.0,-77.99999999999997" style="stroke:black;fill:none;stroke-width:2.0;stroke-dasharray:-;stroke-linecap:round;stroke-linejoin:round;" /><path d="M -36.0,-180.0 L -36.0,-165.0 L -21.0,-165.0 L -21.0,-134.99999999999997 L -36.0,-134.99999999999997 L -36.0,-119.99999999999999" style="stroke:black;fill:none;stroke-width:2.0;stroke-dasharray:-;stroke-linecap:round;stroke-linejoin:round;" /><path d="M -36.0,-165.0 L -30.0,-165.0" style="stroke:black;fill:none;stroke-width:2.0;stroke-dasharray:-;stroke-linecap:round;stroke-linejoin:round;" /><path d="M -23.0 -165.0 L -30.0 -160.5 L -30.0 -169.5 Z" style="stroke:black;fill:black;stroke-linecap:butt;stroke-linejoin:miter;" /><path d="M -18.0,-162.0 L -18.0,-138.0" style="stroke:black;fill:none;stroke-width:2.0;stroke-dasharray:-;stroke-linecap:round;stroke-linejoin:round;" /><path d="M -18.0,-162.0 L -3.0000000000000053,-162.0" style="stroke:black;fill:none;stroke-width:2.0;stroke-dasharray:-;stroke-linecap:round;stroke-linejoin:round;" /><path d="M 36.0,-119.99999999999999 L 36.0,-134.99999999999997 L 21.0,-134.99999999999997 L 21.0,-165.0 L 36.0,-165.0 L 36.0,-180.0" style="stroke:black;fill:none;stroke-width:2.0;stroke-dasharray:-;stroke-linecap:round;stroke-linejoin:round;" /><path d="M 30.0,-165.0 L 36.0,-165.0" style="stroke:black;fill:none;stroke-width:2.0;stroke-dasharray:-;stroke-linecap:round;stroke-linejoin:round;" /><path d="M 23.0 -165.0 L 30.0 -169.5 L 30.0 -160.5 Z" style="stroke:black;fill:black;stroke-linecap:butt;stroke-linejoin:miter;" /><path d="M 18.0,-138.0 L 18.0,-162.0" style="stroke:black;fill:none;stroke-width:2.0;stroke-dasharray:-;stroke-linecap:round;stroke-linejoin:round;" /><path d="M 3.0000000000000053,-162.0 L 18.0,-162.0" style="stroke:black;fill:none;stroke-width:2.0;stroke-dasharray:-;stroke-linecap:round;stroke-linejoin:round;" /><path d="M -3.0000000000000053,-162.0 L 0.0,-162.0 L 3.0000000000000053,-162.0" style="stroke:black;fill:none;stroke-width:2.0;stroke-dasharray:-;stroke-linecap:round;stroke-linejoin:round;" /><path d="M 0.0,-162.0 L -3.8576374173141635e-15,-141.0 L -7.715274834628327e-15,-119.99999999999999" style="stroke:black;fill:none;stroke-width:2.0;stroke-dasharray:-;stroke-linecap:round;stroke-linejoin:round;" /><path d="M -7.715274834628327e-15,-119.99999999999999 L -18.000000000000004,-119.99999999999999 L -36.0,-119.99999999999999" style="stroke:black;fill:none;stroke-width:2.0;stroke-dasharray:-;stroke-linecap:round;stroke-linejoin:round;" /><path d="M -36.0,-180.0 L 0.0,-180.0 L 36.0,-180.0" style="stroke:black;fill:none;stroke-width:2.0;stroke-dasharray:-;stroke-linecap:round;stroke-linejoin:round;" /><path d="M 0.0,-180.0 L 0.0,-194.4" style="stroke:black;fill:none;stroke-width:2.0;stroke-dasharray:-;stroke-linecap:round;stroke-linejoin:round;" /><path d="M 0.0,-194.4 L -6.75,-194.4" style="stroke:black;fill:none;stroke-width:2.0;stroke-dasharray:-;stroke-linecap:round;stroke-linejoin:round;" /><path d="M 0.0,-194.4 L 6.75,-194.4" style="stroke:black;fill:none;stroke-width:2.0;stroke-dasharray:-;stroke-linecap:round;stroke-linejoin:round;" /><path d="M -32.99999999999999,-17.999999999999993 L -37.49999999999999,-17.999999999999993 L -41.99999999999999,-17.999999999999993" style="stroke:black;fill:none;stroke-width:2.0;stroke-dasharray:-;stroke-linecap:round;stroke-linejoin:round;" /><path d="M -41.99999999999999,-17.999999999999993 L -41.99999999999999,-8.999999999999998 L -41.99999999999999,-8.999999999999998 M -42.0,9.000000000000002 L -42.0,9.000000000000002 L -42.0,17.999999999999996" style="stroke:black;fill:none;stroke-width:2.0;stroke-dasharray:-;stroke-linecap:round;stroke-linejoin:round;" /><path d="M -40.2,4.500000000000002 L -43.8,4.500000000000002" style="stroke:black;fill:none;stroke-width:2.0;stroke-dasharray:-;stroke-linecap:round;stroke-linejoin:round;" /><path d="M -41.99999999999999,-6.299999999999997 L -41.99999999999999,-2.6999999999999984" style="stroke:black;fill:none;stroke-width:2.0;stroke-dasharray:-;stroke-linecap:round;stroke-linejoin:round;" /><path d="M -40.2,-4.499999999999998 L -43.8,-4.499999999999998" style="stroke:black;fill:none;stroke-width:2.0;stroke-dasharray:-;stroke-linecap:round;stroke-linejoin:round;" /><path d="M -42.0,17.999999999999996 L -42.0,32.4 L -51.0,32.4 L -33.0,32.4 M -48.300000000000004,36.72 L -35.7,36.72 M -43.800000000000004,41.04 L -40.2,41.04" style="stroke:black;fill:none;stroke-width:2.0;stroke-dasharray:-;stroke-linecap:round;stroke-linejoin:round;" /><path d="M 36.0,-119.99999999999999 L 52.5,-119.99999999999999 L 69.0,-119.99999999999999" style="stroke:black;fill:none;stroke-width:2.0;stroke-dasharray:-;stroke-linecap:round;stroke-linejoin:round;" /><path d="M 8.999999999999998,-52.5 L 9.000000000000002,-18.299999999999997" style="stroke:black;fill:none;stroke-width:2.0;stroke-dasharray:-;stroke-linecap:round;stroke-linejoin:round;" /><path d="M 9.000000000000002 -9.499999999999996 L 5.400000000000001 -18.299999999999997 L 12.600000000000001 -18.299999999999997 Z" style="stroke:black;fill:black;stroke-linecap:butt;stroke-linejoin:miter;" /><path d="M -45.0,-138.29999999999998 L -45.0,-172.49999999999997" style="stroke:black;fill:none;stroke-width:2.0;stroke-dasharray:-;stroke-linecap:round;stroke-linejoin:round;" /><path d="M -45.0 -129.49999999999997 L -48.6 -138.29999999999998 L -41.4 -138.29999999999998 Z" style="stroke:black;fill:black;stroke-linecap:butt;stroke-linejoin:miter;" /><path d="M 45.0,-172.49999999999997 L 45.0,-138.29999999999998" style="stroke:black;fill:none;stroke-width:2.0;stroke-dasharray:-;stroke-linecap:round;stroke-linejoin:round;" /><path d="M 45.0 -129.49999999999997 L 41.4 -138.29999999999998 L 48.6 -138.29999999999998 Z" style="stroke:black;fill:black;stroke-linecap:butt;stroke-linejoin:miter;" /><text x="-52.8" y="-14.0" dominant-baseline="central" fill="black" font-size="14.0" font-family="sans" text-anchor="end"><tspan x="-52.8" dy="14.0">Bias</tspan></text><text x="-96.0" y="-90.0" dominant-baseline="central" fill="black" font-size="12" font-family="sans" text-anchor="middle"><tspan x="-96.0" dy="12">In+</tspan></text><text x="96.0" y="-89.99999999999997" dominant-baseline="central" fill="black" font-size="12" font-family="sans" text-anchor="middle"><tspan x="96.0" dy="12">In−</tspan></text><text x="96.0" y="-132.0" dominant-baseline="central" fill="black" font-size="12" font-family="sans" text-anchor="middle"><tspan x="96.0" dy="12">Out</tspan></text><text x="19.8" y="-44.0" dominant-baseline="central" fill="black" font-size="14.0" font-family="sans" text-anchor="start"><tspan x="19.8" dy="14.0">20µA</tspan></text><text x="-55.800000000000004" y="-163.99999999999997" dominant-baseline="central" fill="black" font-size="14.0" font-family="sans" text-anchor="end"><tspan x="-55.800000000000004" dy="14.0">10µA</tspan></text><text x="55.800000000000004" y="-163.99999999999997" dominant-baseline="central" fill="black" font-size="14.0" font-family="sans" text-anchor="start"><tspan x="55.800000000000004" dy="14.0">10µA</tspan></text><circle cx="0.0" cy="-59.99999999999999" r="2.6999999999999997" style="stroke:black;fill:black;stroke-width:2.0;stroke-dasharray:-;" /><circle cx="0.0" cy="-162.0" r="2.6999999999999997" style="stroke:black;fill:black;stroke-width:2.0;stroke-dasharray:-;" /><circle cx="-36.0" cy="-119.99999999999999" r="2.6999999999999997" style="stroke:black;fill:black;stroke-width:2.0;stroke-dasharray:-;" /><circle cx="0.0" cy="-180.0" r="2.6999999999999997" style="stroke:black;fill:black;stroke-width:2.0;stroke-dasharray:-;" /><circle cx="36.0" cy="-119.99999999999999" r="2.6999999999999997" style="stroke:black;fill:black;stroke-width:2.0;stroke-dasharray:-;" /></svg>