<svg xmlns="http://www.w3.org/2000/svg" xml:lang="en" height="139.166pt" width="167.988pt" viewBox="-46.38800000000001 -26.566 167.988 139.166"><circle cx="-1.2680665196904402e-14" cy="53.999999999999986" r="18.0" style="stroke:black;fill:none;stroke-width:2.0;stroke-dasharray:-;" /><path d="M 0.0,-0.0 L 36.0,-0.0 L 39.0,-9.0 L 45.0,9.0 L 50.99999999999999,-9.0 L 57.0,9.0 L 63.0,-9.0 L 69.0,9.0 L 72.0,-0.0 L 108.0,-0.0" style="stroke:black;fill:none;stroke-width:2.0;stroke-dasharray:-;stroke-linecap:round;stroke-linejoin:round;" /><path d="M 108.0,-0.0 L 107.99999999999999,50.76 M 116.99999999999999,50.76 L 98.99999999999999,50.76 M 116.99999999999999,57.239999999999995 L 98.99999999999999,57.239999999999995 M 107.99999999999999,57.239999999999995 L 107.99999999999999,108.0" style="stroke:black;fill:none;stroke-width:2.0;stroke-dasharray:-;stroke-linecap:round;stroke-linejoin:round;" /><path d="M 107.99999999999999,108.0 L 53.999999999999986,108.0 L -1.5987211554602254e-14,107.99999999999999" style="stroke:black;fill:none;stroke-width:2.0;stroke-dasharray:-;stroke-linecap:round;stroke-linejoin:round;" /><path d="M -1.5987211554602254e-14,107.99999999999999 L -1.3782847316137018e-14,71.99999999999999 L -1.3782847316137018e-14,71.99999999999999 M -1.1578483077671783e-14,35.999999999999986 L -1.1578483077671783e-14,35.999999999999986 L -9.374118839206547e-15,-1.5987211554602254e-14" style="stroke:black;fill:none;stroke-width:2.0;stroke-dasharray:-;stroke-linecap:round;stroke-linejoin:round;" /><path d="M 8.999999999999988,53.999999999999986 L 8.249999999999986,52.136502875261826 L 7.4999999999999885,50.39999999999998 L 6.749999999999988,48.90883117545684 L 5.9999999999999885,47.764617092752026 L 5.2499999999999885,47.045334050718694 L 4.499999999999988,46.79999999999998 L 3.749999999999988,47.04533405071869 L 2.999999999999988,47.764617092752026 L 2.2499999999999876,48.90883117545685 L 1.4999999999999882,50.39999999999998 L 0.7499999999999877,52.13650287526183 L -1.2680665196904402e-14,53.999999999999986 L -0.7500000000000121,55.86349712473813 L -1.5000000000000115,57.59999999999998 L -2.250000000000013,59.09116882454313 L -3.0000000000000124,60.23538290724794 L -3.7500000000000115,60.95466594928127 L -4.500000000000013,61.19999999999998 L -5.250000000000012,60.95466594928128 L -6.0000000000000115,60.23538290724794 L -6.750000000000013,59.091168824543125 L -7.500000000000012,57.59999999999999 L -8.250000000000012,55.86349712473813 L -9.000000000000012,53.999999999999986" style="stroke:black;fill:none;stroke-width:2.0;stroke-dasharray:-;stroke-linecap:round;stroke-linejoin:round;" /><text x="54.0" y="-26.6" dominant-baseline="ideographic" fill="black" font-size="14.0" font-family="sans" text-anchor="middle"><tspan x="54.0" dy="14.0">1Ω</tspan></text><text x="95.39999999999999" y="40.0" dominant-baseline="central" fill="black" font-size="14.0" font-family="sans" text-anchor="end"><tspan x="95.39999999999999" dy="14.0">10μF</tspan></text><text x="-21.600000000000012" y="39.999999999999986" dominant-baseline="central" fill="black" font-size="14.0" font-family="sans" text-anchor="end"><tspan x="-21.600000000000012" dy="14.0">10V</tspan></text></svg>